<svg width="74.438" height="37.809" viewBox="0 0 74.438 37.809" xmlns="http://www.w3.org/2000/svg"><g id="svgGroup" stroke-linecap="round" fill-rule="evenodd" font-size="9pt" stroke="#ffffff" stroke-width="0.10mm" fill="#ffffff" style="stroke:#ffffff;stroke-width:0.10mm;fill:#ffffff"><path d="M 24.336 15.508 L 24.336 12.734 A 0.946 0.946 0 0 0 24.292 12.782 Q 24.22 12.864 24.107 13.02 A 8.264 8.264 0 0 0 24.102 13.027 A 35.349 35.349 0 0 1 23.94 13.247 A 40.936 40.936 0 0 1 23.77 13.477 A 7.763 7.763 0 0 0 23.57 13.755 A 6.285 6.285 0 0 0 23.457 13.926 A 3.522 3.522 0 0 0 23.395 14.027 Q 23.334 14.13 23.302 14.204 A 0.668 0.668 0 0 0 23.281 14.258 Q 23.154 14.481 22.83 15.083 A 170.019 170.019 0 0 0 22.676 15.371 A 292.203 292.203 0 0 1 22.314 16.045 Q 21.992 16.643 21.602 17.363 A 1075.399 1075.399 0 0 1 20.957 18.55 A 1274.979 1274.979 0 0 1 20.273 19.805 A 1274.979 1274.979 0 0 0 19.59 21.06 A 1075.399 1075.399 0 0 0 18.945 22.246 A 102.676 102.676 0 0 1 18.496 23.066 Q 18.137 23.713 17.832 24.238 Q 17.344 25.078 17.188 25.352 A 145.129 145.129 0 0 0 16.377 26.748 A 188.749 188.749 0 0 0 15.508 28.281 Q 14.609 29.883 13.496 31.289 Q 12.383 32.695 10.977 33.633 A 5.607 5.607 0 0 1 7.941 34.568 A 6.785 6.785 0 0 1 7.773 34.57 A 7.193 7.193 0 0 1 5.939 34.344 A 6.033 6.033 0 0 1 4.512 33.77 Q 3.086 32.969 2.07 31.66 A 9.516 9.516 0 0 1 0.527 28.711 Q 0 27.07 0 25.352 A 0.692 0.692 0 0 1 0.009 25.248 Q 0.037 25.069 0.147 24.733 A 9.801 9.801 0 0 1 0.195 24.59 A 9.467 9.467 0 0 1 0.277 24.362 Q 0.393 24.052 0.476 23.915 A 0.595 0.595 0 0 1 0.508 23.867 A 4.777 4.777 0 0 1 1.357 24.772 A 5.693 5.693 0 0 1 1.602 25.137 A 17.143 17.143 0 0 1 2.377 26.544 A 18.865 18.865 0 0 1 2.48 26.758 A 209.641 209.641 0 0 0 3.301 28.457 A 9.057 9.057 0 0 0 4.013 29.674 A 8.086 8.086 0 0 0 4.238 29.98 A 4.534 4.534 0 0 0 5.469 31.094 A 2.843 2.843 0 0 0 6.4 31.45 A 3.999 3.999 0 0 0 7.188 31.523 A 6.114 6.114 0 0 0 8.36 31.416 A 4.612 4.612 0 0 0 9.512 31.035 Q 10.508 30.547 11.328 29.746 Q 12.148 28.945 12.93 27.949 A 30.807 30.807 0 0 1 13.983 26.681 A 37.247 37.247 0 0 1 14.688 25.898 Q 15 25.352 15.645 24.258 Q 16.198 23.318 16.882 22.147 A 897.709 897.709 0 0 0 17.109 21.758 Q 17.93 20.352 18.809 18.809 A 775.157 775.157 0 0 0 19.663 17.305 A 657.799 657.799 0 0 0 20.469 15.879 Q 21.238 14.514 21.855 13.414 A 970.483 970.483 0 0 0 21.875 13.379 Q 22.5 12.266 22.813 11.719 A 3.747 3.747 0 0 0 22.849 11.642 Q 22.938 11.454 23.147 10.982 A 115.595 115.595 0 0 0 23.184 10.898 Q 23.477 10.234 23.809 9.453 A 130.442 130.442 0 0 1 24.131 8.701 A 103.155 103.155 0 0 1 24.434 8.008 Q 24.673 7.465 24.769 7.236 A 6.342 6.342 0 0 0 24.805 7.148 A 1.044 1.044 0 0 1 24.97 6.889 A 0.736 0.736 0 0 1 25.547 6.641 A 1.017 1.017 0 0 1 26.034 6.754 Q 26.253 6.871 26.406 7.11 A 1.591 1.591 0 0 1 26.543 7.383 A 5.331 5.331 0 0 1 26.815 8.333 A 6.868 6.868 0 0 1 26.914 9.063 A 12.725 12.725 0 0 1 26.957 9.908 Q 26.965 10.381 26.934 10.82 A 95.689 95.689 0 0 0 26.914 11.105 Q 26.875 11.67 26.875 11.797 A 55.319 55.319 0 0 1 26.602 17.305 A 55.715 55.715 0 0 0 26.328 22.852 L 26.328 26.172 Q 26.591 25.57 27.144 24.245 A 374.373 374.373 0 0 0 27.188 24.141 A 931.461 931.461 0 0 0 27.771 22.736 Q 28.078 21.998 28.418 21.174 A 1559.908 1559.908 0 0 0 28.516 20.938 Q 29.258 19.141 30.078 17.129 A 325.195 325.195 0 0 1 30.884 15.171 A 276.918 276.918 0 0 1 31.66 13.32 A 3710.177 3710.177 0 0 0 32.293 11.827 Q 32.678 10.917 33.008 10.137 A 60.868 60.868 0 0 1 33.284 9.493 Q 33.672 8.604 33.906 8.164 A 36.398 36.398 0 0 1 34.471 7.117 Q 34.769 6.585 35.115 6.001 A 63.549 63.549 0 0 1 35.352 5.605 Q 36.211 4.18 37.285 2.93 Q 38.359 1.68 39.688 0.84 Q 41.016 0 42.539 0 A 14.112 14.112 0 0 0 40.262 1.913 Q 39.297 2.905 38.4 4.158 A 19.487 19.487 0 0 0 38.398 4.16 A 38.998 38.998 0 0 0 35.914 8.135 A 46.04 46.04 0 0 0 34.883 10.137 A 80.672 80.672 0 0 0 31.934 17.031 A 249.302 249.302 0 0 0 30.645 20.547 A 213.853 213.853 0 0 0 29.473 23.906 A 2176.014 2176.014 0 0 1 28.408 27.036 A 1606.263 1606.263 0 0 1 27.441 29.863 A 51.05 51.05 0 0 1 26.992 31.122 Q 26.333 32.891 25.762 33.945 A 6.853 6.853 0 0 1 25.503 34.386 Q 24.895 35.331 24.395 35.234 Q 23.898 35.138 23.467 33.57 A 15.28 15.28 0 0 1 23.281 32.813 A 60.028 60.028 0 0 1 23.438 28.496 Q 23.594 26.328 23.809 24.18 Q 24.023 22.031 24.18 19.863 A 60.57 60.57 0 0 0 24.336 15.508 Z M 70.273 15.625 L 70.273 15.117 A 332.91 332.91 0 0 1 70.028 15.385 Q 69.614 15.835 68.926 16.582 Q 68.008 17.578 66.855 18.828 A 960.831 960.831 0 0 0 65.674 20.112 A 1117.062 1117.062 0 0 0 64.434 21.465 A 1117.062 1117.062 0 0 1 63.193 22.817 A 960.831 960.831 0 0 1 62.012 24.102 Q 60.859 25.352 59.961 26.348 A 572.685 572.685 0 0 1 59.541 26.813 Q 58.969 27.445 58.649 27.795 A 77.963 77.963 0 0 1 58.633 27.813 A 3.152 3.152 0 0 0 58.329 28.207 Q 58.063 28.611 57.813 29.199 A 33.356 33.356 0 0 1 56.953 31.055 A 10.021 10.021 0 0 1 56.395 32.035 A 8.008 8.008 0 0 1 55.918 32.695 Q 55.485 33.232 54.973 33.359 A 1.345 1.345 0 0 1 54.648 33.398 Q 54.063 33.398 53.73 33.281 Q 53.398 33.164 53.242 32.91 A 1.217 1.217 0 0 1 53.118 32.632 Q 53.067 32.467 53.047 32.266 A 6.985 6.985 0 0 1 53.023 31.951 Q 53.014 31.775 53.01 31.576 A 13.822 13.822 0 0 1 53.008 31.328 A 18.859 18.859 0 0 1 53.848 25.723 Q 54.688 23.008 55.625 20.195 L 55.625 19.688 Q 55.547 19.766 55.352 19.941 A 3.411 3.411 0 0 0 55.274 20.014 Q 55.164 20.118 55.127 20.178 A 0.208 0.208 0 0 0 55.117 20.195 A 74.316 74.316 0 0 0 53.81 22.23 A 87.945 87.945 0 0 0 53.203 23.223 Q 52.227 24.844 51.172 26.426 Q 50.117 28.008 48.906 29.453 A 17.955 17.955 0 0 1 46.289 32.012 A 12.237 12.237 0 0 1 43.223 33.789 A 9.348 9.348 0 0 1 40.546 34.412 A 11.256 11.256 0 0 1 39.57 34.453 Q 39.141 34.453 38.418 34.414 Q 37.695 34.375 37.012 34.18 A 3.147 3.147 0 0 1 36.216 33.833 A 2.79 2.79 0 0 1 35.84 33.555 Q 35.352 33.125 35.352 32.344 A 0.71 0.71 0 0 1 35.388 32.131 Q 35.45 31.935 35.618 31.689 A 3.461 3.461 0 0 1 35.723 31.543 Q 36.044 31.12 36.293 30.917 A 1.439 1.439 0 0 1 36.367 30.859 Q 36.788 31.551 37.105 31.883 A 1.751 1.751 0 0 0 37.285 32.051 Q 37.571 32.276 38.053 32.328 A 2.865 2.865 0 0 0 38.359 32.344 A 8.367 8.367 0 0 0 39.878 32.199 A 10.531 10.531 0 0 0 40.84 31.973 A 14.074 14.074 0 0 0 43.379 30.977 A 15.763 15.763 0 0 0 45.703 29.531 A 11.878 11.878 0 0 0 46.808 28.597 A 9.34 9.34 0 0 0 47.539 27.813 A 34.716 34.716 0 0 0 47.848 27.394 Q 48.303 26.768 48.882 25.922 A 99.443 99.443 0 0 0 48.965 25.801 A 142.712 142.712 0 0 0 49.834 24.512 A 181.595 181.595 0 0 0 50.762 23.105 Q 51.719 21.641 52.734 20.117 Q 53.75 18.594 54.707 17.207 A 91.072 91.072 0 0 1 55.63 15.894 A 66.609 66.609 0 0 1 56.484 14.727 Q 57.305 13.633 57.891 13.086 Q 58.398 13.086 58.67 13.238 A 0.748 0.748 0 0 1 58.711 13.262 A 0.968 0.968 0 0 1 59.102 13.75 A 1.739 1.739 0 0 1 59.188 14.08 Q 59.219 14.271 59.219 14.492 L 59.219 15.391 A 10.677 10.677 0 0 1 58.73 18.594 A 41.389 41.389 0 0 1 57.656 21.621 A 66.598 66.598 0 0 0 56.643 24.316 A 61.067 61.067 0 0 0 56.582 24.492 A 8.732 8.732 0 0 0 56.132 26.493 A 7.783 7.783 0 0 0 56.094 27.266 Q 56.094 27.344 56.113 27.539 Q 56.131 27.719 56.133 27.799 A 0.743 0.743 0 0 1 56.133 27.813 Q 59.805 23.75 62.461 20.781 A 2487.636 2487.636 0 0 0 64.341 18.678 Q 65.077 17.854 65.735 17.115 A 1238.282 1238.282 0 0 0 66.973 15.723 Q 68.632 13.853 69.745 12.609 A 566.085 566.085 0 0 1 70 12.324 A 125.49 125.49 0 0 1 70.557 11.707 Q 71.348 10.835 71.875 10.293 A 21.794 21.794 0 0 1 72.206 9.96 Q 72.518 9.652 72.746 9.459 A 3.842 3.842 0 0 1 72.949 9.297 A 2.432 2.432 0 0 1 73.126 9.177 Q 73.309 9.066 73.451 9.035 A 0.49 0.49 0 0 1 73.555 9.023 Q 73.855 9.023 74.04 9.162 A 0.596 0.596 0 0 1 74.141 9.258 Q 74.336 9.492 74.395 9.805 A 2.622 2.622 0 0 1 74.438 10.231 Q 74.438 10.263 74.438 10.295 A 3.125 3.125 0 0 1 74.434 10.469 A 16.764 16.764 0 0 0 74.425 10.637 Q 74.414 10.879 74.414 11.055 Q 74.414 12.695 73.809 14.395 A 27.067 27.067 0 0 1 72.777 16.878 A 31.649 31.649 0 0 1 72.285 17.871 Q 71.367 19.648 70.293 21.465 A 48.669 48.669 0 0 0 68.301 25.195 A 27.937 27.937 0 0 0 66.777 29.082 A 13.702 13.702 0 0 0 66.172 33.125 Q 66.172 34.14 66.208 34.631 A 6.085 6.085 0 0 0 66.211 34.668 A 2.395 2.395 0 0 0 66.268 35.039 Q 66.319 35.25 66.409 35.422 A 1.419 1.419 0 0 0 66.445 35.488 A 2.04 2.04 0 0 0 66.625 35.743 Q 66.724 35.865 66.853 35.991 A 4.492 4.492 0 0 0 67.07 36.191 Q 67.399 36.476 67.934 37.023 A 38.717 38.717 0 0 1 68.281 37.383 Q 67.383 37.891 66.543 37.793 A 2.428 2.428 0 0 1 65.098 37.109 A 2.943 2.943 0 0 1 64.522 36.314 Q 64.338 35.952 64.219 35.508 A 4.328 4.328 0 0 1 64.081 34.643 Q 64.04 33.972 64.18 33.203 A 18.047 18.047 0 0 1 64.712 28.904 A 20.036 20.036 0 0 1 64.785 28.613 A 37.156 37.156 0 0 1 66.309 24.023 A 64.217 64.217 0 0 1 68.281 19.629 A 1339.249 1339.249 0 0 1 69.307 17.563 A 1109.962 1109.962 0 0 1 70.273 15.625 Z" vector-effect="non-scaling-stroke"/></g></svg>